<svg xmlns="http://www.w3.org/2000/svg" width="1500" height="900" viewBox="0 0 1500 900" role="img" aria-labelledby="title desc">
  <title id="title">COMPASS skills ecosystem map</title>
  <desc id="desc">An English DAG showing user-profile-keeper, task-clarifier, task-forest, and future ecosystem skills.</desc>
  <defs>
    <marker id="arrow" markerWidth="11" markerHeight="11" refX="10" refY="4" orient="auto" markerUnits="strokeWidth">
      <path d="M0,0 L0,8 L11,4 z" fill="#334155"/>
    </marker>
    <style>
      .bg { fill: #f8fafc; }
      .panel { fill: #ffffff; stroke: #d8e2ee; stroke-width: 2; rx: 24; }
      .node { fill: #ffffff; stroke: #cbd5e1; stroke-width: 2.4; rx: 18; }
      .core { stroke: #2563eb; }
      .support { stroke: #0f766e; }
      .evolve { stroke: #d97706; }
      .title { font: 800 40px system-ui, -apple-system, BlinkMacSystemFont, "Segoe UI", sans-serif; fill: #0f172a; }
      .subtitle { font: 500 20px system-ui, -apple-system, BlinkMacSystemFont, "Segoe UI", sans-serif; fill: #475569; }
      .label { font: 750 24px system-ui, -apple-system, BlinkMacSystemFont, "Segoe UI", sans-serif; fill: #0f172a; }
      .small { font: 17px system-ui, -apple-system, BlinkMacSystemFont, "Segoe UI", sans-serif; fill: #475569; }
      .tag { font: 700 16px system-ui, -apple-system, BlinkMacSystemFont, "Segoe UI", sans-serif; fill: #0f172a; }
      .line { stroke: #334155; stroke-width: 3; fill: none; }
      .edge { stroke: #334155; stroke-width: 3; fill: none; marker-end: url(#arrow); }
      .soft { stroke: #64748b; stroke-dasharray: 9 8; }
      .blue { fill: #dbeafe; }
      .teal { fill: #ccfbf1; }
      .amber { fill: #fef3c7; }
    </style>
  </defs>

  <rect class="bg" width="1500" height="900"/>
  <text class="title" x="80" y="74">COMPASS Skills Ecosystem</text>
  <text class="subtitle" x="80" y="112">Understand the user, map the work, align the direction, and improve skills from real runs.</text>

  <rect class="panel" x="60" y="150" width="1380" height="680"/>

  <rect class="node core" x="110" y="215" width="330" height="150"/>
  <rect class="blue" x="138" y="240" width="118" height="32" rx="16"/>
  <text class="tag" x="160" y="262">Know user</text>
  <text class="label" x="138" y="306">User Profile</text>
  <text class="small" x="138" y="334">user-profile-keeper</text>
  <text class="small" x="138" y="360">low-risk collaboration summary</text>

  <rect class="node core" x="585" y="215" width="330" height="150"/>
  <rect class="blue" x="613" y="240" width="150" height="32" rx="16"/>
  <text class="tag" x="635" y="262">Know direction</text>
  <text class="label" x="613" y="306">Alignment Gate</text>
  <text class="small" x="613" y="334">task-clarifier</text>
  <text class="small" x="613" y="360">shared executable requirement</text>

  <rect class="node core" x="1060" y="215" width="330" height="150"/>
  <rect class="blue" x="1088" y="240" width="118" height="32" rx="16"/>
  <text class="tag" x="1110" y="262">Know work</text>
  <text class="label" x="1088" y="306">Task Forest / DAG</text>
  <text class="small" x="1088" y="334">task-forest</text>
  <text class="small" x="1088" y="360">goals, edges, progress, drift</text>

  <path class="edge soft" d="M440 290 L585 290"/>
  <path class="edge" d="M915 290 L1060 290"/>

  <path class="line" d="M1225 365 L1225 420 L250 420"/>
  <path class="edge" d="M250 420 L250 485"/>
  <path class="edge" d="M570 420 L570 485"/>
  <path class="edge" d="M890 420 L890 485"/>
  <path class="edge" d="M1210 420 L1210 485"/>

  <rect class="node support" x="100" y="485" width="300" height="120"/>
  <rect class="teal" x="128" y="507" width="100" height="30" rx="15"/>
  <text class="tag" x="153" y="528">handoff</text>
  <text class="label" x="128" y="568">Session Handoff</text>
  <text class="small" x="128" y="594">restart prompts</text>

  <rect class="node support" x="420" y="485" width="300" height="120"/>
  <rect class="teal" x="448" y="507" width="100" height="30" rx="15"/>
  <text class="tag" x="472" y="528">control</text>
  <text class="label" x="448" y="568">Agent Control Room</text>
  <text class="small" x="448" y="594">multi-agent state and risk</text>

  <rect class="node support" x="740" y="485" width="300" height="120"/>
  <rect class="teal" x="768" y="507" width="100" height="30" rx="15"/>
  <text class="tag" x="793" y="528">routing</text>
  <text class="label" x="768" y="568">Gap Router</text>
  <text class="small" x="768" y="594">low-switch-cost task picks</text>

  <rect class="node evolve" x="1060" y="485" width="330" height="120"/>
  <rect class="amber" x="1088" y="507" width="100" height="30" rx="15"/>
  <text class="tag" x="1115" y="528">evolve</text>
  <text class="label" x="1088" y="568">Run-History Skills</text>
  <text class="small" x="1088" y="594">builder / upgrader</text>

  <path class="line" d="M250 605 L250 670 L750 670"/>
  <path class="line" d="M570 605 L570 670"/>
  <path class="line" d="M890 605 L890 670"/>
  <path class="line" d="M1225 605 L1225 670 L750 670"/>
  <path class="edge" d="M750 670 L750 720"/>

  <rect class="node evolve" x="210" y="720" width="1080" height="78"/>
  <text class="label" x="250" y="752">Future: reports, scheduling, retrospectives, habits, and health systems</text>
  <text class="small" x="250" y="780">Powered by the profile, task forest, alignment gate, and run history as durable context</text>
</svg>
